HIERARCHY
ROOT Hips
{
	OFFSET 0.000000 0.000000 0.000000
	CHANNELS 6 Xposition Yposition Zposition Zrotation Yrotation Xrotation 
	JOINT LHipJoint
	{
		OFFSET 0.000000 0.000000 0.000000
		CHANNELS 3 Zrotation Yrotation Xrotation
		JOINT LeftUpLeg
		{
			OFFSET 1.363060 -1.794630 0.839290
			CHANNELS 3 Zrotation Yrotation Xrotation
			JOINT LeftLeg
			{
				OFFSET 2.448110 -6.726130 0.000000
				CHANNELS 3 Zrotation Yrotation Xrotation
				JOINT LeftFoot
				{
					OFFSET 2.562200 -7.039590 0.000000
					CHANNELS 3 Zrotation Yrotation Xrotation
					JOINT LeftToeBase
					{
						OFFSET 0.157640 -0.433110 2.322550
						CHANNELS 3 Zrotation Yrotation Xrotation
						End Site
						{
							OFFSET 0.000000 0.000000 0.000000
						}
					}
				}
			}
		}
	}
	JOINT RHipJoint
	{
		OFFSET 0.000000 0.000000 0.000000
		CHANNELS 3 Zrotation Yrotation Xrotation
		JOINT RightUpLeg
		{
			OFFSET -1.305520 -1.794630 0.839290
			CHANNELS 3 Zrotation Yrotation Xrotation
			JOINT RightLeg
			{
				OFFSET -2.542530 -6.985550 0.000000
				CHANNELS 3 Zrotation Yrotation Xrotation
				JOINT RightFoot
				{
					OFFSET -2.568260 -7.056230 0.000000
					CHANNELS 3 Zrotation Yrotation Xrotation
					JOINT RightToeBase
					{
						OFFSET -0.164730 -0.452590 2.363150
						CHANNELS 3 Zrotation Yrotation Xrotation
						End Site
						{
							OFFSET 0.000000 0.000000 0.000000
						}
					}
				}
			}
		}
	}
	JOINT LowerBack
	{
		OFFSET 0.000000 0.000000 0.000000
		CHANNELS 3 Zrotation Yrotation Xrotation
		JOINT Spine
		{
			OFFSET 0.028270 2.035590 -0.193380
			CHANNELS 3 Zrotation Yrotation Xrotation
			JOINT Spine1
			{
				OFFSET 0.056720 2.048850 -0.042750
				CHANNELS 3 Zrotation Yrotation Xrotation
				JOINT Neck
				{
					OFFSET 0.000000 0.000000 0.000000
					CHANNELS 3 Zrotation Yrotation Xrotation
					JOINT Neck1
					{
						OFFSET -0.054170 1.746240 0.172020
						CHANNELS 3 Zrotation Yrotation Xrotation
						JOINT Head
						{
							OFFSET 0.104070 1.761360 -0.123970
							CHANNELS 3 Zrotation Yrotation Xrotation
							End Site
							{
								OFFSET 0.000000 0.000000 0.000000
							}
						}
					}
				}
				JOINT LeftShoulder
				{
					OFFSET 0.000000 0.000000 0.000000
					CHANNELS 3 Zrotation Yrotation Xrotation
					JOINT LeftArm
					{
						OFFSET 3.362410 1.200890 -0.311210
						CHANNELS 3 Zrotation Yrotation Xrotation
						JOINT LeftForeArm
						{
							OFFSET 4.983000 -0.000000 -0.000000
							CHANNELS 3 Zrotation Yrotation Xrotation
							JOINT LeftHand
							{
								OFFSET 3.483560 -0.000000 -0.000000
								CHANNELS 3 Zrotation Yrotation Xrotation
								JOINT LeftFingerBase
								{
									OFFSET 0.000000 0.000000 0.000000
									CHANNELS 3 Zrotation Yrotation Xrotation
									JOINT LeftHandIndex1
									{
										OFFSET 0.715260 -0.000000 -0.000000
										CHANNELS 3 Zrotation Yrotation Xrotation
										End Site
										{
											OFFSET 0.000000 0.000000 0.000000
										}
									}
								}
								JOINT LThumb
								{
									OFFSET 0.000000 0.000000 0.000000
									CHANNELS 3 Zrotation Yrotation Xrotation
									End Site
									{
										OFFSET 0.000000 0.000000 0.000000
									}
								}
							}
						}
					}
				}
				JOINT RightShoulder
				{
					OFFSET 0.000000 0.000000 0.000000
					CHANNELS 3 Zrotation Yrotation Xrotation
					JOINT RightArm
					{
						OFFSET -3.136600 1.374050 -0.404650
						CHANNELS 3 Zrotation Yrotation Xrotation
						JOINT RightForeArm
						{
							OFFSET -5.241900 -0.000000 -0.000000
							CHANNELS 3 Zrotation Yrotation Xrotation
							JOINT RightHand
							{
								OFFSET -3.444170 -0.000000 -0.000000
								CHANNELS 3 Zrotation Yrotation Xrotation
								JOINT RightFingerBase
								{
									OFFSET 0.000000 0.000000 0.000000
									CHANNELS 3 Zrotation Yrotation Xrotation
									JOINT RightHandIndex1
									{
										OFFSET -0.622530 -0.000000 -0.000000
										CHANNELS 3 Zrotation Yrotation Xrotation
										End Site
										{
											OFFSET 0.000000 0.000000 0.000000
										}
									}
								}
								JOINT RThumb
								{
									OFFSET 0.000000 0.000000 0.000000
									CHANNELS 3 Zrotation Yrotation Xrotation
									End Site
									{
										OFFSET 0.000000 0.000000 0.000000
									}
								}
							}
						}
					}
				}
			}
		}
	}
}
MOTION
Frames: 12
Frame Time: 0.016667
0.042728 16.910260 0.042728 -0.607752 -8.418500 4.142617 -1.491791 -17.000126 18.654481 20.886274 -47.223561 -8.185452 41.319796 -1.583819 -20.115458 11.073401 14.792218 51.704975 0.000000 0.000000 0.000000 -1.926691 2.959085 -17.155707 18.081924 -9.289966 11.354800 2.494530 -10.646138 13.292747 0.591598 -0.060984 -16.971916 0.000000 0.000000 0.000000 3.885682 6.690032 4.544673 -13.379869 7.245917 24.798163 -0.298858 3.128048 -24.871495 19.592757 -4.436638 -8.663673 -4.405682 -0.579562 3.421499 0.000000 0.000000 0.000000 11.486758 4.793000 9.999672 -74.434263 -3.762752 19.071743 -2.701403 -84.660196 -1.030149 14.021424 -26.993938 -0.673944 15.058403 -26.562980 0.000000 0.000000 0.000000 0.000000 0.000000 0.000000 0.000000 -27.328743 -7.488764 -29.008560 80.884110 -21.809459 53.672859 122.906933 42.985307 -179.730583 24.606922 -21.346347 0.321301 24.977730 -20.646798 0.000000 0.000000 0.000000 0.000000 0.000000 0.000000 0.000000 
-0.012989 16.894005 0.136144 0.139522 -9.464677 5.120626 -2.940803 -18.463681 18.460290 21.478764 -45.637161 -8.646757 49.500257 -12.153702 -14.140234 15.334731 29.779497 58.448553 0.000000 0.000000 0.000000 -0.991225 4.158513 -16.365982 15.122580 -8.941705 10.655486 5.493919 -10.425163 11.529118 0.432436 0.805002 -19.439339 0.000000 0.000000 0.000000 5.393545 7.090497 5.658717 -12.469746 7.092215 22.372505 -4.158383 2.802453 -34.719009 18.108630 -5.782922 -6.164711 -6.076467 -0.910301 7.175975 0.000000 0.000000 0.000000 14.181314 5.471656 12.434595 -68.789699 0.379291 26.720262 -20.639814 -78.373417 0.857717 -0.705383 -11.248483 0.428996 -0.737012 -11.261347 0.000000 0.000000 0.000000 0.000000 0.000000 0.000000 0.000000 -31.655573 -13.194355 -43.974316 88.578528 10.796919 9.907203 -132.704347 32.009552 -179.375136 30.879455 -10.697589 1.171332 30.655106 -11.488402 -0.000000 0.000000 0.000000 0.000000 0.000000 0.000000 0.000000 
-0.032167 16.903985 0.263044 -0.165484 -14.235770 6.280993 -3.674054 -17.888865 18.670385 23.502454 -43.215768 -10.722584 56.209887 -23.226551 -8.482378 22.308812 47.069472 65.107277 0.000000 0.000000 0.000000 1.414877 5.758551 -14.604538 12.000095 -7.138297 8.772635 8.255503 -9.612854 10.690507 0.179716 2.123548 -21.213922 0.000000 0.000000 0.000000 3.699442 0.938191 4.813509 -11.758810 0.224215 18.387269 5.479789 1.832928 -41.787550 13.118261 -8.538789 3.341979 -9.303764 -0.980579 11.538877 0.000000 0.000000 0.000000 12.479680 23.340490 14.839511 -67.468206 10.424990 26.769841 -27.059260 -76.281330 1.164221 -5.543970 -1.983079 0.584473 -5.600945 -1.990864 0.000000 0.000000 0.000000 0.000000 0.000000 0.000000 0.000000 -15.698797 -20.889287 -40.067591 70.403982 -5.869736 -72.990016 100.907321 85.814797 0.371313 -2.775409 -12.009044 0.301727 -2.387320 -12.430021 -0.000000 0.000000 0.000000 0.000000 0.000000 0.000000 0.000000 
-0.025132 16.932500 0.412993 0.669823 -9.910764 5.979824 -4.661382 -19.964429 17.423925 20.404575 -44.272880 -8.475548 54.387935 -16.442792 -11.017153 17.750240 32.156174 60.285261 0.000000 0.000000 0.000000 -0.153626 8.119168 -17.072517 11.187894 -10.377086 12.744636 8.852895 -10.875872 8.987990 0.548726 -0.355737 -18.990892 0.000000 0.000000 0.000000 7.277410 3.320719 7.828954 -9.777971 5.900814 23.279456 -4.107778 4.231393 -15.263024 13.372518 -9.660953 -27.092608 -7.003218 -0.790496 4.869751 0.000000 0.000000 0.000000 1.648992 16.792713 -0.570783 -64.606542 -6.693415 23.246452 -26.736952 -78.829036 1.094448 -5.003358 -2.746548 0.549471 -5.058666 -2.752426 0.000000 0.000000 0.000000 0.000000 0.000000 0.000000 0.000000 -12.691447 20.230042 6.400040 -143.242652 -20.978401 -66.218435 -17.478529 -81.122310 -160.180521 72.525320 -17.957985 5.879671 77.897004 -11.513925 -0.000000 0.000000 0.000000 0.000000 0.000000 0.000000 0.000000 
-0.016288 16.962086 0.561711 0.656204 -8.139707 3.299373 -5.037904 -19.140074 19.094823 17.350806 -44.818703 -5.793242 51.924125 -10.334697 -14.043009 17.189158 15.901899 52.565387 0.000000 0.000000 0.000000 -0.269465 10.963194 -17.114437 10.183092 -12.703866 16.995611 9.055000 -11.828606 7.921310 0.915969 -2.595087 -16.210436 0.000000 0.000000 0.000000 7.176676 2.861010 4.270016 -19.652939 2.335658 23.957080 -10.342484 -2.352861 -35.320991 28.016692 -3.918986 0.824302 -1.784324 -0.793986 6.660423 0.000000 0.000000 0.000000 25.933972 9.325997 13.503853 -68.086793 4.037361 23.507225 -27.631892 -79.176418 0.952446 -4.672871 -3.694588 0.477789 -4.717335 -3.702543 0.000000 0.000000 0.000000 0.000000 0.000000 0.000000 0.000000 -61.228196 -18.477909 -42.129157 157.889783 -23.492969 61.504705 105.169369 22.573262 164.016461 39.581685 84.982938 -1.849455 53.477200 72.880569 0.000003 0.000000 0.000000 0.000000 0.000000 0.000000 0.000000 
0.008317 17.001981 0.723142 -4.971476 -5.771142 6.510515 0.032342 -20.021313 15.593793 15.876416 -46.758171 -4.940033 43.786666 2.441885 -21.765188 10.514073 9.894389 50.868814 0.000000 0.000000 0.000000 2.751183 14.215529 -21.779958 11.967065 -15.266646 18.290322 9.203665 -13.030804 7.167151 1.294104 -5.100273 -13.006117 0.000000 0.000000 0.000000 -7.101449 -1.754775 13.201467 -20.370638 1.476714 34.040481 20.362432 -2.105575 -33.073362 43.061106 -4.269195 -19.325128 -4.006606 0.236305 -2.460087 0.000000 0.000000 0.000000 20.445547 40.408473 2.375158 -83.488650 1.830642 26.668478 -27.585287 -82.343883 1.004204 -3.815951 -7.099150 0.504130 -3.872462 -7.108074 0.000000 0.000000 0.000000 0.000000 0.000000 0.000000 0.000000 -41.978843 -41.245392 -26.567870 110.622087 17.467821 -15.711563 -95.915173 -19.970390 148.394412 23.701185 78.295585 -17.384143 20.512491 79.791027 0.000000 0.000000 0.000000 0.000000 0.000000 0.000000 0.000000 
0.034745 17.042158 0.883317 3.162962 -0.091677 4.302811 -4.420755 -22.006906 16.185215 10.604853 -50.592955 -2.428182 37.469414 10.907216 -26.967167 6.347027 0.813285 49.044604 0.000000 0.000000 0.000000 -4.219155 13.140998 -21.561794 9.928996 -16.987487 22.443799 9.078061 -14.345902 6.740947 1.625723 -7.676877 -9.698701 0.000000 0.000000 0.000000 13.043012 7.687843 13.475364 -8.182159 8.931184 15.734102 -5.095169 6.298287 -50.913927 4.405327 -1.866510 2.733572 -12.093590 -0.448641 12.019534 0.000000 0.000000 0.000000 -0.956233 -7.274249 20.722088 -64.608204 5.987551 26.741174 -27.403283 -76.331938 0.925230 -2.399468 -9.839779 0.464163 -2.446583 -9.851606 0.000000 0.000000 0.000000 0.000000 0.000000 0.000000 0.000000 -0.886435 -15.910454 -48.643076 120.625090 37.573450 -34.306544 23.736884 -32.371277 171.554853 23.181899 29.671633 -7.298744 16.806300 33.281084 0.000000 0.000000 0.000000 0.000000 0.000000 0.000000 0.000000 
0.049936 17.073392 1.029637 1.905891 1.186466 1.032416 -2.447692 -21.588281 17.206869 6.602644 -52.340066 1.292617 32.177220 17.058705 -31.629671 2.913224 -1.136563 47.539411 0.000000 0.000000 0.000000 -3.617758 13.208926 -20.575547 10.423815 -18.172092 24.332987 8.577261 -15.058975 7.145229 1.938918 -9.198490 -7.048186 0.000000 0.000000 0.000000 8.751804 8.428879 9.682535 -11.509597 12.047194 24.550945 2.898651 5.410275 -45.042448 8.030029 0.817304 3.258041 -10.455566 -0.244151 11.158623 0.000000 0.000000 0.000000 -1.881300 -13.601753 20.661867 -70.900278 1.673692 24.395581 -26.209281 -78.025622 0.823283 -1.376181 -11.973675 0.411701 -1.401399 -11.986302 0.000000 0.000000 0.000000 0.000000 0.000000 0.000000 0.000000 8.177648 -30.330005 -20.214559 120.591613 49.234660 -81.997098 112.435316 -39.392325 -170.106820 -1.621478 46.644882 18.811118 26.571876 40.887101 0.000000 0.000000 0.000000 0.000000 0.000000 0.000000 0.000000 
0.065811 17.103985 1.173970 1.552793 3.156893 3.147655 0.103468 -22.439124 14.247748 2.319446 -54.152980 3.231338 27.916009 21.797656 -34.635082 -1.380527 -1.692225 45.395587 0.000000 0.000000 0.000000 -4.587816 13.977410 -23.393300 10.934394 -19.387845 25.255578 8.341886 -15.945530 7.328268 2.157600 -10.823074 -4.738953 0.000000 0.000000 0.000000 7.381309 8.553085 15.827565 -9.483300 12.115061 30.629238 -2.972714 2.288070 -43.419653 12.731530 -4.473440 -26.375559 -8.244088 -0.897405 13.507301 0.000000 0.000000 0.000000 9.446163 -0.366756 6.598014 -72.354317 -4.713979 33.775810 -29.041320 -78.849736 1.192054 -2.097428 -13.621787 0.595534 -2.148755 -13.643803 0.000000 0.000000 0.000000 0.000000 0.000000 0.000000 0.000000 -11.586267 -5.248013 1.377350 59.109099 12.815571 -109.275765 46.413439 -9.855883 -176.438028 29.989874 76.646747 1.818317 38.041388 73.852203 0.000000 0.000000 0.000000 0.000000 0.000000 0.000000 0.000000 
0.083006 17.134597 1.317701 2.951608 0.290015 2.235105 -1.289605 -20.880419 14.580669 -1.895737 -54.963696 4.594258 24.605119 25.893424 -36.442794 -2.359759 -5.398578 41.714948 0.000000 0.000000 0.000000 -4.442411 15.817855 -22.898769 9.981642 -18.615881 25.954644 7.775423 -16.002373 8.279275 2.296632 -11.075992 -3.390920 0.000000 0.000000 0.000000 9.538366 1.747771 12.738546 -15.583136 3.487492 28.065493 -3.403920 -4.272425 -49.711406 20.101258 -4.509353 -6.236011 -6.765707 -1.005057 12.990365 0.000000 0.000000 0.000000 18.392656 5.259374 15.668521 -67.943989 5.239701 27.312343 -26.429278 -80.031961 0.991133 -1.060283 -14.172949 0.495352 -1.091095 -14.189457 0.000000 0.000000 0.000000 0.000000 0.000000 0.000000 0.000000 -33.959667 -42.965134 -42.343170 82.497732 57.645611 -87.952271 -167.656741 -38.087591 164.815029 16.193219 82.808465 -10.383204 13.403281 84.278099 -0.000000 0.000000 0.000000 0.000000 0.000000 0.000000 0.000000 
0.099998 17.164382 1.459435 4.530263 1.664279 2.956561 -1.431529 -21.370016 13.781800 -6.736118 -56.238658 6.789362 21.477023 29.178966 -37.858592 -1.965109 -9.764719 36.707040 0.000000 0.000000 0.000000 -5.499521 15.247436 -22.889261 9.476339 -18.565318 26.039636 7.601569 -16.404144 8.843545 2.360089 -11.696248 -2.187460 0.000000 0.000000 0.000000 12.738101 3.543160 14.591439 -18.458526 5.552465 24.773983 -15.582393 -5.551843 -50.706032 27.829306 -4.659156 -9.026406 -3.950296 -1.285248 10.946868 0.000000 0.000000 0.000000 25.914485 -4.932942 16.034270 -67.202524 2.383027 27.883413 -25.902673 -80.107483 1.034914 -0.877857 -14.384371 0.518170 -0.916690 -14.400605 0.000000 0.000000 0.000000 0.000000 0.000000 0.000000 0.000000 -60.005507 -37.226396 -70.809590 150.944548 5.891166 -101.253086 -30.233700 64.027741 -18.946075 12.628833 77.986877 -16.372564 3.793385 80.366795 -0.000000 0.000000 0.000000 0.000000 0.000000 0.000000 0.000000 
0.116106 17.192729 1.598420 4.884454 1.472711 3.035985 -0.954432 -21.655828 13.315621 -9.736650 -57.027336 8.404449 20.038725 31.848309 -38.302430 -0.586051 -12.622875 32.883980 0.000000 0.000000 0.000000 -5.317486 15.118799 -22.497937 9.135257 -18.175582 25.752711 7.231830 -16.549607 9.664793 2.401060 -11.865065 -1.373544 0.000000 0.000000 0.000000 12.435249 3.772963 14.646584 -18.397042 5.691252 24.727442 -15.609880 -5.445013 -50.658203 27.809088 -4.668782 -9.187629 -3.957215 -1.281001 10.871244 0.000000 0.000000 0.000000 25.803613 -5.300967 16.009702 -67.256310 2.207101 27.904817 -26.049035 -80.022514 1.038273 -0.925223 -14.332185 0.519939 -0.965224 -14.348437 0.000000 0.000000 0.000000 0.000000 0.000000 0.000000 0.000000 -59.811322 -36.897643 -71.000052 150.582237 5.883523 -101.331758 -29.803655 63.908129 -18.966520 12.365931 77.842288 -16.308662 3.584340 80.200282 -0.000000 0.000000 0.000000 0.000000 0.000000 0.000000 0.000000 
